<svg xmlns="http://www.w3.org/2000/svg" width="1454.5" height="1295.5"><style>@font-face{font-family:&quot;Proxima Nova&quot;;src:url(../fonts/ProximaNova-Regular.ttf)}@font-face{font-family:&quot;Myriad Pro&quot;;src:url(../fonts/ProximaNova-Regular.ttf)}</style><path fill-rule="evenodd" stroke="#E12457" stroke-width="5" fill="#FFF" d="M770.439 2.498c398.807 1.274 702.208 285.27 677.665 634.324-24.543 349.054-367.736 630.986-766.543 629.712-398.807-1.273-702.208-285.27-677.665-634.324C28.439 283.157 371.632 1.224 770.439 2.498z"/><path fill-rule="evenodd" stroke="#E12457" stroke-width="5" fill="#FFF" d="M1096.141 1132.437c12.21 0 22.109 9.885 22.109 22.078 0 12.194-9.899 22.079-22.109 22.079-12.211 0-22.11-9.885-22.11-22.079 0-12.193 9.899-22.078 22.11-22.078zm-269.485 79.813c21.626 0 39.156 17.516 39.156 39.125 0 21.608-17.53 39.125-39.156 39.125-21.625 0-39.156-17.517-39.156-39.125 0-21.609 17.531-39.125 39.156-39.125z"/><text font-family="Myriad Pro" font-size="16" x="820.5" y="1193.562"><tspan font-family="Proxima Nova" font-weight="bold" fill="#E12457">Earth</tspan></text><text font-family="Myriad Pro" font-size="16" x="1022.5" y="1153.562"><tspan font-family="Proxima Nova" font-weight="bold" fill="#E12457">Mars</tspan></text><text font-family="Myriad Pro" font-size="24" x="929.5" y="1273.452"><tspan font-family="Proxima Nova" fill="#E12457">56 </tspan><tspan font-size="12" font-family="Proxima Nova" baseline-shift="super" fill="#E12457">mln km </tspan><tspan font-family="Proxima Nova" fill="#E12457">7 </tspan><tspan font-size="12" font-family="Proxima Nova" baseline-shift="super" fill="#E12457">mths</tspan></text></svg>